# xmcd CD database file
#
# Track frame offsets:
#	183
#	11883
#	25658
#	38958
#	53883
#	68508
#	81933
#	95283
#	108358
#	122883
#	136383
#	148533
#	161658
#	172608
#	183783
#	201908
#	214158
#	225633
#	235808
#	245690
#
# Disc length: 3444 seconds
#
# Revision: 20
# Processed by: cddbd v1.5.2PL0 Copyright (c) Steve Scherf et al.
# Submitted via: CDex 1.90
#
DISCID=0c0d7214
DTITLE=John Lee Hooker - Gold Collection [CD 2)
DYEAR=2001
DGENRE=Blues
TTITLE0=Boogie Chillun
TTITLE1=Louise
TTITLE2=Ground Hog Blues
TTITLE3=Ramblin' By Myself
TTITLE4=Sugar Mama
TTITLE5=Love Blues
TTITLE6=Stella Mae
TTITLE7=Unfriendly Woman
TTITLE8=I'm So Worried Baby
TTITLE9=Trouble Blues
TTITLE10=Everybody Rockin'
TTITLE11=I'm So Excited
TTITLE12=Little Fine Woman
TTITLE13=You've Taken My Woman
TTITLE14=House Rent Boogie
TTITLE15=I'm Mad Again
TTITLE16=Hard Hearted Woman
TTITLE17=I Wanna Walk
TTITLE18=Run On
TTITLE19=Mambo Chillun
EXTD=YEAR: 2001
EXTT0=
EXTT1=
EXTT2=
EXTT3=
EXTT4=
EXTT5=
EXTT6=
EXTT7=
EXTT8=
EXTT9=
EXTT10=
EXTT11=
EXTT12=
EXTT13=
EXTT14=
EXTT15=
EXTT16=
EXTT17=
EXTT18=
EXTT19=
PLAYORDER=
